<?xml version="1.0" encoding="UTF-8"?>
<svg width="15px" height="14px" viewBox="0 0 15 14" version="1.1" xmlns="http://www.w3.org/2000/svg" xmlns:xlink="http://www.w3.org/1999/xlink">
    <!-- Generator: sketchtool 52.1 (67048) - http://www.bohemiancoding.com/sketch -->
    <title>A607C028-28EA-4C6A-B07B-8037B07B8C5F</title>
    <desc>Created with sketchtool.</desc>
    <defs>
        <path d="M300.666667,1515.82353 C300.666667,1515.36894 301.04,1515 301.5,1515 C301.96,1515 302.333333,1515.36894 302.333333,1515.82353 L302.333333,1516.64706 L310.666667,1516.64706 L310.666667,1515.82353 C310.666667,1515.36894 311.04,1515 311.5,1515 C311.96,1515 312.333333,1515.36894 312.333333,1515.82353 L312.333333,1516.64706 C313.254167,1516.64706 314,1517.38412 314,1518.29412 L314,1527.35294 C314,1528.26294 313.254167,1529 312.333333,1529 L300.666667,1529 C299.745833,1529 299,1528.26294 299,1527.35294 L299,1518.29412 C299,1517.38412 299.745833,1516.64706 300.666667,1516.64706 L300.666667,1515.82353 Z M300.666667,1520.76471 L300.666667,1526.52941 C300.666667,1526.984 301.04,1527.35294 301.5,1527.35294 L311.5,1527.35294 C311.96,1527.35294 312.333333,1526.984 312.333333,1526.52941 L312.333333,1520.76471 C312.333333,1520.31012 311.96,1519.94118 311.5,1519.94118 L301.5,1519.94118 C301.04,1519.94118 300.666667,1520.31012 300.666667,1520.76471 Z M309.833333,1524.05882 C310.293333,1524.05882 310.666667,1524.42776 310.666667,1524.88235 C310.666667,1525.33694 310.293333,1525.70588 309.833333,1525.70588 C309.373333,1525.70588 309,1525.33694 309,1524.88235 C309,1524.42776 309.373333,1524.05882 309.833333,1524.05882 Z" id="path-1"></path>
    </defs>
    <g id="Page-1" stroke="none" stroke-width="1" fill="none" fill-rule="evenodd">
        <g id="UIAssignment_LandingPage_Simplified-Copy" transform="translate(-299.000000, -1515.000000)">
            <mask id="mask-2" fill="white">
                <use xlink:href="#path-1"></use>
            </mask>
            <use id="Combined-Shape" fill="#626A88" xlink:href="#path-1"></use>
        </g>
    </g>
</svg>