<?xml version="1.0" encoding="UTF-8"?>
<svg width="15px" height="14px" viewBox="0 0 15 14" version="1.1" xmlns="http://www.w3.org/2000/svg" xmlns:xlink="http://www.w3.org/1999/xlink">
    <!-- Generator: sketchtool 52.1 (67048) - http://www.bohemiancoding.com/sketch -->
    <title>05698E76-3327-4A78-A48E-B90C481D1B50</title>
    <desc>Created with sketchtool.</desc>
    <g id="Page-1" stroke="none" stroke-width="1" fill="none" fill-rule="evenodd">
        <g id="UIAssignment_LandingPage_Simplified-Copy" transform="translate(-298.000000, -1579.000000)" fill="#626A88">
            <path d="M305.462249,1591.35487 C308.195875,1591.35487 310.41177,1589.14621 310.41177,1586.42118 C310.41177,1583.69615 308.195875,1581.48748 305.462249,1581.48748 C302.728622,1581.48748 300.512728,1583.69615 300.512728,1586.42118 C300.512728,1589.14621 302.728622,1591.35487 305.462249,1591.35487 Z M305.462249,1593 C301.817413,1593 298.862887,1590.05427 298.862887,1586.42118 C298.862887,1582.78809 301.817413,1579.84236 305.462249,1579.84236 C309.107084,1579.84236 312.06161,1582.78809 312.06161,1586.42118 C312.06161,1590.05427 309.107084,1593 305.462249,1593 Z M312.758607,1582.53011 C312.43675,1582.85105 311.913841,1582.85105 311.591984,1582.53011 L309.458927,1580.404 C309.13707,1580.08222 309.13707,1579.56164 309.458927,1579.2407 C309.780784,1578.91977 310.303693,1578.91977 310.62555,1579.2407 L312.758607,1581.36682 C313.080464,1581.68776 313.080464,1582.20918 312.758607,1582.53011 Z M301.541073,1579.2407 C301.86293,1579.56164 301.86293,1580.08222 301.541073,1580.404 L299.408016,1582.53011 C299.086159,1582.85105 298.56325,1582.85105 298.241393,1582.53011 C297.919536,1582.20918 297.919536,1581.68776 298.241393,1581.36682 L300.37445,1579.2407 C300.696307,1578.91977 301.219216,1578.91977 301.541073,1579.2407 Z M305.174907,1583.77786 C305.174907,1583.46534 304.921218,1583.21179 304.60799,1583.21179 C304.293899,1583.21179 304.040211,1583.46534 304.040211,1583.77786 L304.040211,1586.91227 L306.470964,1589.26498 C306.692726,1589.48652 307.05255,1589.48652 307.273449,1589.26498 C307.495211,1589.04428 307.495211,1588.68628 307.273449,1588.46558 L305.174907,1586.38327 L305.174907,1583.77786 Z" id="Icon"></path>
        </g>
    </g>
</svg>