<?xml version="1.0" encoding="UTF-8"?>
<svg width="13px" height="17px" viewBox="0 0 13 17" version="1.1" xmlns="http://www.w3.org/2000/svg" xmlns:xlink="http://www.w3.org/1999/xlink">
    <!-- Generator: sketchtool 52.1 (67048) - http://www.bohemiancoding.com/sketch -->
    <title>48DAE6D7-81EC-4E44-B9DA-7734FEB0AFE8</title>
    <desc>Created with sketchtool.</desc>
    <g id="Page-1" stroke="none" stroke-width="1" fill="none" fill-rule="evenodd">
        <g id="UIAssignment_LandingPage_Simplified-Copy" transform="translate(-306.000000, -1342.000000)" fill="#777B8C" stroke="#777B8C" stroke-width="0.2">
            <path d="M316.856317,1348.93023 L319.056002,1350.41715 L319.056002,1350.58285 L316.856865,1352.0694 L319.055659,1353.5425 L319.055832,1353.70854 L312.555747,1358.08296 L312.444205,1358.08304 L305.94429,1353.72258 L305.943998,1353.55669 L308.143683,1352.06977 L305.943998,1350.58285 L305.944341,1350.41692 L308.143135,1348.94382 L305.943998,1347.45727 L305.944167,1347.29146 L312.444082,1342.91704 L312.555624,1342.91695 L319.055709,1347.27742 L319.056002,1347.44331 L316.856317,1348.93023 Z M307.416646,1347.37442 L312.499916,1350.79476 L317.58335,1347.37442 L312.499916,1343.95425 L307.416646,1347.37442 Z M316.064803,1349.47463 L312.555679,1351.83202 L312.444149,1351.83202 L308.935196,1349.47463 L307.416443,1350.49987 L312.499916,1353.92034 L317.583555,1350.49986 L316.064803,1349.47463 Z M316.0648,1352.60021 L312.555676,1354.95743 L312.444152,1354.95743 L308.935198,1352.60021 L307.416413,1353.62547 L312.499916,1357.04765 L317.583585,1353.62547 L316.0648,1352.60021 Z" id="Fill-1"></path>
        </g>
    </g>
</svg>