<svg xmlns="http://www.w3.org/2000/svg" xmlns:xlink="http://www.w3.org/1999/xlink" width="147" height="30" viewBox="0 0 147 30">
    <defs>
        <path id="a" d="M13.594 11.373L6.809.135 20.363.126z"/>
        <filter id="b" width="129.5%" height="135.6%" x="-14.8%" y="-17.8%" filterUnits="objectBoundingBox">
            <feGaussianBlur in="SourceAlpha" result="shadowBlurInner1" stdDeviation="1.5"/>
            <feOffset dy="1" in="shadowBlurInner1" result="shadowOffsetInner1"/>
            <feComposite in="shadowOffsetInner1" in2="SourceAlpha" k2="-1" k3="1" operator="arithmetic" result="shadowInnerInner1"/>
            <feColorMatrix in="shadowInnerInner1" values="0 0 0 0 0 0 0 0 0 0 0 0 0 0 0 0 0 0 0.12 0"/>
        </filter>
        <path id="d" d="M13.594 11.373L6.809 22.61l13.554.01z"/>
        <filter id="c" width="203.3%" height="224.5%" x="-51.6%" y="-44.5%" filterUnits="objectBoundingBox">
            <feOffset dy="2" in="SourceAlpha" result="shadowOffsetOuter1"/>
            <feGaussianBlur in="shadowOffsetOuter1" result="shadowBlurOuter1" stdDeviation="2"/>
            <feColorMatrix in="shadowBlurOuter1" values="0 0 0 0 0 0 0 0 0 0 0 0 0 0 0 0 0 0 0.12 0"/>
        </filter>
        <filter id="e" width="188.5%" height="206.7%" x="-44.3%" y="-35.6%" filterUnits="objectBoundingBox">
            <feGaussianBlur in="SourceAlpha" result="shadowBlurInner1" stdDeviation="1.5"/>
            <feOffset dy="1" in="shadowBlurInner1" result="shadowOffsetInner1"/>
            <feComposite in="shadowOffsetInner1" in2="SourceAlpha" k2="-1" k3="1" operator="arithmetic" result="shadowInnerInner1"/>
            <feColorMatrix in="shadowInnerInner1" values="0 0 0 0 0 0 0 0 0 0 0 0 0 0 0 0 0 0 0.12 0"/>
        </filter>
        <path id="g" d="M.032 11.37h13.554L6.809.128z"/>
        <filter id="f" width="203.3%" height="224.5%" x="-51.6%" y="-44.5%" filterUnits="objectBoundingBox">
            <feOffset dy="2" in="SourceAlpha" result="shadowOffsetOuter1"/>
            <feGaussianBlur in="shadowOffsetOuter1" result="shadowBlurOuter1" stdDeviation="2"/>
            <feColorMatrix in="shadowBlurOuter1" values="0 0 0 0 0 0 0 0 0 0 0 0 0 0 0 0 0 0 0.12 0"/>
        </filter>
    </defs>
    <g fill="none" fill-rule="evenodd">
        <path fill="#FFF" d="M38.445 21.231c-1.712 0-3.26-.372-4.644-1.116a8.329 8.329 0 0 1-3.264-3.096c-.792-1.32-1.188-2.812-1.188-4.476 0-1.664.396-3.156 1.188-4.476A8.329 8.329 0 0 1 33.8 4.971c1.384-.744 2.94-1.116 4.668-1.116 1.456 0 2.772.256 3.948.768a7.908 7.908 0 0 1 2.964 2.208l-2.496 2.304c-1.136-1.312-2.544-1.968-4.224-1.968-1.04 0-1.968.228-2.784.684a4.862 4.862 0 0 0-1.908 1.908c-.456.816-.684 1.744-.684 2.784 0 1.04.228 1.968.684 2.784a4.862 4.862 0 0 0 1.908 1.908c.816.456 1.744.684 2.784.684 1.68 0 3.088-.664 4.224-1.992l2.496 2.304a7.78 7.78 0 0 1-2.976 2.232c-1.184.512-2.504.768-3.96.768zm20.479-3.888h-7.8l-1.488 3.6h-3.984l7.488-16.8h3.84l7.512 16.8h-4.08l-1.488-3.6zM57.7 14.391l-2.664-6.432-2.664 6.432H57.7zm24.031 6.552l-.024-10.08-4.944 8.304h-1.752l-4.92-8.088v9.864h-3.648v-16.8h3.216l6.288 10.44 6.192-10.44h3.192l.048 16.8h-3.648zm15.103-16.8c1.488 0 2.78.248 3.876.744s1.94 1.2 2.532 2.112c.592.912.888 1.992.888 3.24 0 1.232-.296 2.308-.888 3.228-.592.92-1.436 1.624-2.532 2.112s-2.388.732-3.876.732H93.45v4.632h-3.888v-16.8h7.272zm-.216 9c1.168 0 2.056-.252 2.664-.756.608-.504.912-1.22.912-2.148 0-.944-.304-1.668-.912-2.172-.608-.504-1.496-.756-2.664-.756H93.45v5.832h3.168zm16.591 1.2l-2.256 2.352v4.248h-3.864v-16.8h3.864v7.848l7.44-7.848h4.32l-6.96 7.488 7.368 9.312h-4.536l-5.376-6.6zm17.744-10.2v16.8h-3.888V7.263h-3.36v-3.12h7.248zm15.679 13.632v3.168h-12.696v-2.52l6.48-6.12c.688-.656 1.152-1.22 1.392-1.692s.36-.94.36-1.404c0-.672-.228-1.188-.684-1.548-.456-.36-1.124-.54-2.004-.54-.736 0-1.4.14-1.992.42-.592.28-1.088.7-1.488 1.26l-2.832-1.824c.656-.976 1.56-1.74 2.712-2.292 1.152-.552 2.472-.828 3.96-.828 1.248 0 2.34.204 3.276.612.936.408 1.664.984 2.184 1.728.52.744.78 1.62.78 2.628 0 .912-.192 1.768-.576 2.568-.384.8-1.128 1.712-2.232 2.736l-3.864 3.648h7.224z"/>
        <path stroke="#FEFEFE" stroke-linejoin="round" stroke-width=".5" d="M3.032 12.634L9.809 1.392l6.777 11.242z"/>
        <g transform="translate(3 1.264)">
            <use fill="#FFF" xlink:href="#a"/>
            <use fill="#000" filter="url(#b)" xlink:href="#a"/>
        </g>
        <path stroke="#ECECEC" stroke-linejoin="round" stroke-width=".5" d="M16.594 12.637L9.809 1.399l13.554-.009z"/>
        <g transform="translate(3 1.264)">
            <use fill="#000" filter="url(#c)" xlink:href="#d"/>
            <use fill="#FFF" xlink:href="#d"/>
            <use fill="#000" filter="url(#e)" xlink:href="#d"/>
        </g>
        <path stroke="#EDEDED" stroke-linejoin="round" stroke-width=".5" d="M16.594 12.637L9.809 23.874l13.554.01z"/>
        <path fill="#FFF" d="M3.032 12.639l6.777 11.242 6.777-11.242z"/>
        <path stroke="#FEFEFE" stroke-linejoin="round" stroke-width=".5" d="M3.032 12.64L9.809 23.88l6.777-11.242z"/>
        <g transform="translate(3 1.264)">
            <use fill="#000" filter="url(#f)" xlink:href="#g"/>
            <use fill="#FFF" xlink:href="#g"/>
        </g>
    </g>
</svg>
