<?xml version="1.0" encoding="UTF-8"?>
<svg width="14px" height="13px" viewBox="0 0 14 13" version="1.1" xmlns="http://www.w3.org/2000/svg" xmlns:xlink="http://www.w3.org/1999/xlink">
    <!-- Generator: sketchtool 52.1 (67048) - http://www.bohemiancoding.com/sketch -->
    <title>47A8D313-3801-49F0-8092-AD55A558D7B2</title>
    <desc>Created with sketchtool.</desc>
    <defs>
        <path d="M452.914656,1355.58846 L453.928093,1354.34258 L453.928093,1356.77164 C453.928093,1357.44904 453.364605,1358 452.673537,1358 L444.255433,1358 C443.564366,1358 443,1357.44904 443,1356.77164 L443,1346.22784 C443,1345.55113 443.564366,1345 444.255433,1345 L452.673537,1345 C453.364605,1345 453.928093,1345.55113 453.928093,1346.22784 L453.928093,1348.01111 L452.799186,1349.3977 L452.799186,1346.52523 C452.799186,1346.32835 452.63651,1346.16875 452.435753,1346.16875 L444.493218,1346.16875 C444.292461,1346.16875 444.127679,1346.32835 444.127679,1346.52523 L444.127679,1356.4734 C444.127679,1356.67165 444.292461,1356.83125 444.493218,1356.83125 L452.435753,1356.83125 C452.636334,1356.83125 452.799186,1356.67165 452.799186,1356.4734 L452.799186,1355.70065 C452.837267,1355.66251 452.880085,1355.63073 452.914656,1355.58846 Z M451.33803,1355.34554 C451.045318,1355.34554 450.766995,1355.21927 450.575013,1355.00315 L448.708359,1352.88659 C448.345628,1352.47427 448.391781,1351.85133 448.813827,1351.49605 C449.23482,1351.13957 449.870433,1351.18475 450.234042,1351.59707 L451.306091,1352.81254 L455.204882,1348.02726 C455.550767,1347.60069 456.183748,1347.52819 456.619482,1347.87041 C457.055742,1348.20954 457.127516,1348.83042 456.779526,1349.25562 L452.125264,1354.97205 C451.939072,1355.20278 451.657767,1355.33764 451.35786,1355.34554 L451.33803,1355.34554 Z" id="path-1"></path>
    </defs>
    <g id="Page-1" stroke="none" stroke-width="1" fill="none" fill-rule="evenodd">
        <g id="UIAssignment_LandingPage_Simplified-Copy" transform="translate(-443.000000, -1345.000000)">
            <mask id="mask-2" fill="white">
                <use xlink:href="#path-1"></use>
            </mask>
            <use id="Icon" fill="#777B8C" xlink:href="#path-1"></use>
        </g>
    </g>
</svg>