<svg id="Capa_1" enable-background="new 0 0 512 512" height="512" viewBox="0 0 512 512" width="512" xmlns="http://www.w3.org/2000/svg"><g><g><path d="m375.5 320v-173.299c0-66.064-239-66.064-239 0v172.299z" fill="#5d5360"/><path d="m375.5 147.7v173.3l-30-.13v-173.17z" fill="#514a54"/><path d="m191 185.5h-43.671c-13.661 0-24.829-11.275-24.829-24.935v-.201c0-9.784 5.729-18.307 13.999-22.357l54.501-22.507z" fill="#c38c66"/><path d="m83.74 390.926 41.414-76.474c6.991-12.91 20.492-20.952 35.174-20.952h191.346c4.48 0 52.276 100.798 52.276 100.798z" fill="#f9e385"/><path d="m396.947 388.504-40.097-74.054c-6.99-12.91-20.5-20.95-35.18-20.95h30c14.68 0 28.19 8.04 35.18 20.95l40.091 74.043z" fill="#f9c269"/><path d="m400.5 444.5h-299c-13.81 0-25-11.19-25-25 0-4.99.62-9.94 1.84-14.74s3.02-9.44 5.4-13.83l1.32-2.43h341.88z" fill="#d19a6e"/><path d="m435.5 419.5c0 6.9-2.8 13.16-7.32 17.68s-10.78 7.32-17.68 7.32h-30c6.9 0 13.16-2.8 17.68-7.32s7.32-10.78 7.32-17.68c0-9.98-2.49-19.8-7.24-28.57l-1.32-2.43h30l1.32 2.43c4.75 8.77 7.24 18.59 7.24 28.57z" fill="#c38c66"/><path d="m220.5 238v64.5c0 5.523 4.477 10 10 10h51c5.523 0 10-4.477 10-10v-65.5z" fill="#c38c66"/><path d="m160.5 59v110.415c0 52.627 42.768 95.085 95.395 95.085h.158c52.627 0 95.447-42.458 95.447-95.085v-110.415z" fill="#d19a6e"/><path d="m351.5 59h-30v110.41c0 47.56-34.96 86.81-80.53 93.93l22.197 6.327c12.488 0 28.25-11.907 28.25-11.907 30.365-12.071 53.065-39.233 58.709-72.26h14.546c13.661 0 24.829-11.275 24.829-24.935v-.201c0-9.785-5.731-18.31-14.003-22.359-3.277-1.603-23.998-79.005-23.998-79.005z" fill="#c38c66"/><path d="m116.5 504.5h30v-30h-30c-5.523 0-10 4.477-10 10v10c0 5.523 4.477 10 10 10z" fill="#e2d6d1"/><path d="m365.5 504.5h30c5.523 0 10-4.477 10-10v-10c0-5.523-4.477-10-10-10h-30z" fill="#e2d6d1"/><path d="m375.5 504.5h-239v-151c0-5.523 4.477-10 10-10h219c5.523 0 10 4.477 10 10z" fill="#f0e5e0"/><path d="m375.5 353.5v151h-30v-151c0-5.52-4.48-10-10-10h30c5.52 0 10 4.48 10 10z" fill="#e2d6d1"/><path d="m282.5 424c0 14.636-11.864 26.5-26.5 26.5-14.636 0-26.5-11.864-26.5-26.5 0-14.636 11.864-26.5 26.5-26.5 14.636 0 26.5 11.864 26.5 26.5z" fill="#fff"/><path d="m302.5 16.83 9.667 34.17-9.667 19.88c0 35.83-28.92 64.62-64.75 64.62h-90.42c-3.88 0-7.56.9-10.83 2.51v-11.31c0-66.05 53.45-119.18 119.49-119.2 16.5.01 32.22 3.33 46.51 9.33z" fill="#6f6571"/><path d="m302.5 16.83v18.23c-8.98-7.46-19.07-13.63-30-18.23-9.89-4.15-20.46-7.02-31.51-8.4 4.91-.61 9.92-.93 15-.93 16.5.01 32.22 3.33 46.51 9.33z" fill="#5d5360"/><path d="m375.5 126.7v11.31c-3.27-1.61-6.95-2.51-10.83-2.51h-25.54c-20.16 0-36.63-16.08-36.63-36.23v-82.44c42.91 18.05 73 60.33 73 109.87z" fill="#5d5360"/><path d="m375.5 126.7v11.31c-3.27-1.61-6.95-2.51-10.83-2.51h-19.17v-8.8c0-36.93-16.72-69.82-43-91.64v-18.23c42.91 18.05 73 60.33 73 109.87z" fill="#514a54"/></g><g><path d="m221.478 211.917c10.121 8.596 22.28 12.894 34.461 12.894 12.169 0 24.36-4.291 34.558-12.872 3.169-2.666 3.577-7.397.91-10.567s-7.398-3.577-10.567-.909c-14.693 12.362-35.11 12.372-49.651.021-3.157-2.679-7.89-2.295-10.571.861-2.683 3.157-2.298 7.89.86 10.572z"/><path d="m302.5 182.5c4.142 0 7.5-3.357 7.5-7.5v-8c0-4.143-3.358-7.5-7.5-7.5s-7.5 3.357-7.5 7.5v8c0 4.143 3.358 7.5 7.5 7.5z"/><path d="m209.5 182.5c4.142 0 7.5-3.357 7.5-7.5v-8c0-4.143-3.358-7.5-7.5-7.5s-7.5 3.357-7.5 7.5v8c0 4.143 3.358 7.5 7.5 7.5z"/><path d="m222 424c0 18.748 15.252 34 34 34s34-15.252 34-34-15.252-34-34-34-34 15.252-34 34zm53 0c0 10.477-8.523 19-19 19s-19-8.523-19-19 8.523-19 19-19 19 8.523 19 19z"/><path d="m410.498 452c17.921 0 32.502-14.58 32.502-32.502 0-11.188-2.816-22.304-8.145-32.144l-41.414-76.474c-2.723-5.029-6.285-9.419-10.441-13.069v-110.548c8.449-5.857 14-15.638 14-26.698v-.2c0-11.037-5.551-20.795-14-26.64v-7.023c0-33.938-13.216-65.79-37.213-89.688-23.94-23.842-55.802-36.984-89.729-37.014-.023 0-.05.001-.073 0-.024.001-.049 0-.073 0-33.926.03-65.783 13.173-89.714 37.014-23.988 23.895-37.198 55.748-37.198 89.687v7.023c-8.449 5.844-14 15.603-14 26.64v.2c0 11.061 5.551 20.841 14 26.698v110.549c-4.156 3.65-7.718 8.04-10.441 13.069l-41.414 76.474c-5.329 9.84-8.145 20.956-8.145 32.144 0 17.922 14.581 32.502 32.502 32.502h27.498v15h-12.5c-9.649 0-17.5 7.851-17.5 17.5v10c0 9.649 7.851 17.5 17.5 17.5h199c4.142 0 7.5-3.357 7.5-7.5s-3.358-7.5-7.5-7.5h-171.5v-143.5c0-1.379 1.122-2.5 2.5-2.5h219c1.378 0 2.5 1.121 2.5 2.5v143.5h-17.5c-4.142 0-7.5 3.357-7.5 7.5s3.358 7.5 7.5 7.5h45c9.649 0 17.5-7.851 17.5-17.5v-10c0-9.649-7.851-17.5-17.5-17.5h-12.5v-15zm0-15h-27.498v-41h39c.138 0 .273-.013.409-.021 3.647 7.281 5.591 15.37 5.591 23.519 0 9.65-7.852 17.502-17.502 17.502zm-42.498-148.095c-5.149-1.884-10.658-2.905-16.327-2.905h-52.673v-23.365c28.429-13.057 49.907-38.654 57.25-69.635h8.421c1.124 0 2.234-.059 3.329-.171zm-84 13.595c0 1.379-1.122 2.5-2.5 2.5h-51c-1.378 0-2.5-1.121-2.5-2.5v-34.333c8.874 2.495 18.23 3.833 27.895 3.833h.158c9.683 0 19.057-1.341 27.947-3.843zm98-142.136v.2c0 9.614-7.774 17.436-17.329 17.436h-6.035c.237-2.832.364-5.694.364-8.585v-26.415h5.671c9.555 0 17.329 7.79 17.329 17.364zm-238-33.663c0-61.577 50.232-111.677 111.985-111.701 61.769.024 112.015 50.124 112.015 111.701v1.47c-1.095-.113-2.205-.171-3.329-.171h-25.546c-16.06 0-29.125-12.891-29.125-28.734v-29.266c0-4.143-3.358-7.5-7.5-7.5s-7.5 3.357-7.5 7.5v.881c0 31.495-25.681 57.119-57.247 57.119h-28.253c-4.142 0-7.5 3.357-7.5 7.5s3.358 7.5 7.5 7.5h28.253c24.472 0 46.127-12.22 59.202-30.857 5.56 17.849 22.36 30.857 42.17 30.857h4.875v26.415c0 48.295-39.453 87.585-87.947 87.585h-.158c-48.466 0-87.895-39.29-87.895-87.585v-26.415h6.5c4.142 0 7.5-3.357 7.5-7.5s-3.358-7.5-7.5-7.5h-27.171c-1.124 0-2.234.058-3.329.171zm-14 33.863v-.2c0-9.574 7.774-17.364 17.329-17.364h5.671v26.415c0 2.891.127 5.753.363 8.585h-6.034c-9.555 0-17.329-7.821-17.329-17.436zm14 32.265c1.095.113 2.205.171 3.329.171h8.42c7.342 30.992 28.822 56.596 57.251 69.649v15.351 8h-52.673c-5.669 0-11.178 1.021-16.327 2.905zm-42.498 244.171c-9.65 0-17.502-7.852-17.502-17.502 0-8.149 1.944-16.237 5.591-23.519.136.008.271.021.409.021h39v41zm12.498 57.5v-10c0-1.379 1.122-2.5 2.5-2.5h12.5v15h-12.5c-1.378 0-2.5-1.121-2.5-2.5zm251.5-158.5h-219c-9.649 0-17.5 7.851-17.5 17.5v27.5h-31.356l34.105-62.977c5.686-10.5 16.636-17.023 28.578-17.023h52.673v1.5c0 9.649 7.851 17.5 17.5 17.5h51c9.649 0 17.5-7.851 17.5-17.5v-1.5h52.673c11.942 0 22.892 6.523 28.578 17.023l34.105 62.977h-31.356v-27.5c0-9.649-7.851-17.5-17.5-17.5zm30 146c1.378 0 2.5 1.121 2.5 2.5v10c0 1.379-1.122 2.5-2.5 2.5h-12.5v-15z"/></g></g></svg>