<?xml version="1.0" encoding="UTF-8"?>
<svg width="10px" height="16px" viewBox="0 0 10 16" version="1.1" xmlns="http://www.w3.org/2000/svg" xmlns:xlink="http://www.w3.org/1999/xlink">
    <!-- Generator: sketchtool 52.1 (67048) - http://www.bohemiancoding.com/sketch -->
    <title>736156C8-BD53-4AA9-998B-2DF8D1532923</title>
    <desc>Created with sketchtool.</desc>
    <defs>
        <path d="M302.808732,1558.52109 C303.078669,1556.99486 303.740624,1555.78442 304.914511,1554.59571 L305.50262,1554 L304.914511,1553.40446 C303.349439,1551.81962 302.693139,1550.19638 302.665696,1547.83747 C303.548358,1548.00387 304.712765,1548.10526 305.989605,1548.10526 C307.266611,1548.10526 308.430852,1548.00387 309.313347,1547.83747 C309.285904,1550.19672 308.629605,1551.81996 307.064699,1553.40463 L306.476757,1554 L307.064865,1554.59554 C308.238919,1555.78442 308.900873,1556.99503 309.170811,1558.52126 C309.260457,1559.02855 309.306029,1559.57154 309.313015,1560.15933 C309.180291,1560.13474 309.041081,1560.11149 308.896383,1560.08977 C308.887568,1559.61398 308.913291,1559.55899 308.788274,1558.75722 C308.70493,1558.22271 307.771985,1557.51422 305.989439,1556.63175 C304.216543,1557.45408 303.283709,1558.16246 303.190936,1558.75688 C303.051776,1559.64852 303.09131,1559.61533 303.082827,1560.0928 C302.938129,1560.11469 302.798919,1560.13811 302.666362,1560.16303 C302.673347,1559.57356 302.718919,1559.02922 302.808732,1558.52109 Z M310.147775,1560.31613 L310.147775,1560.35941 C310.685821,1560.52733 311,1560.7296 311,1560.94737 C311,1561.52876 308.761497,1562 305.994761,1562 L305.989605,1562 C303.234012,1562 301,1561.52859 301,1560.94737 C301,1560.92345 301.005156,1560.89971 301.012308,1560.87629 C301.014137,1560.8704 301.016299,1560.86434 301.018794,1560.85844 C301.027609,1560.83638 301.038753,1560.81448 301.053888,1560.79276 C301.054886,1560.79141 301.055551,1560.79023 301.056549,1560.78855 C301.072848,1560.76581 301.093971,1560.74324 301.117256,1560.72084 C301.123243,1560.71495 301.129563,1560.70939 301.13605,1560.70366 C301.158669,1560.68362 301.183285,1560.66408 301.21106,1560.64438 C301.214719,1560.64185 301.217713,1560.63933 301.221372,1560.6368 C301.252807,1560.61541 301.288067,1560.59436 301.325655,1560.57347 C301.335634,1560.56775 301.346112,1560.56236 301.35659,1560.55697 C301.389854,1560.53928 301.425114,1560.52211 301.462703,1560.50493 C301.470852,1560.50139 301.478337,1560.49752 301.486653,1560.49398 C301.53106,1560.47461 301.578462,1560.45524 301.628191,1560.43655 C301.64316,1560.43082 301.658628,1560.42543 301.674096,1560.41971 C301.714678,1560.40488 301.756923,1560.39057 301.800665,1560.37642 C301.811476,1560.37272 301.820956,1560.36935 301.831767,1560.36564 L301.831767,1560.31579 C301.831767,1557.36842 302.747027,1555.59949 304.32657,1554 C302.75817,1552.41162 301.831601,1550.63158 301.831601,1547.68421 L301.831601,1547.63436 C301.306528,1547.46762 301,1547.26771 301,1547.05263 C301,1546.47124 303.234012,1546 305.989605,1546 C308.745198,1546 310.97921,1546.47124 310.97921,1547.05263 C310.97921,1547.26771 310.672682,1547.46762 310.147609,1547.63436 L310.147609,1547.68421 C310.147609,1550.63158 309.232349,1552.40051 307.652807,1554 C309.221372,1555.58838 310.147775,1557.36842 310.147775,1560.31613 Z M306.780507,1553.10975 C307.044282,1552.8406 307.486486,1552.28874 307.486486,1552.28136 C307.486486,1552.16086 306.816362,1552.06319 305.989689,1552.06319 C305.162848,1552.06319 304.492723,1552.16086 304.492723,1552.28136 C304.492723,1552.28874 304.935097,1552.84043 305.199208,1553.10975 L305.989857,1553.91582 L306.780507,1553.10975 Z" id="path-1"></path>
    </defs>
    <g id="Page-1" stroke="none" stroke-width="1" fill="none" fill-rule="evenodd">
        <g id="UIAssignment_LandingPage_Simplified-Copy" transform="translate(-301.000000, -1546.000000)">
            <mask id="mask-2" fill="white">
                <use xlink:href="#path-1"></use>
            </mask>
            <use id="Icon" fill="#626A88" xlink:href="#path-1"></use>
        </g>
    </g>
</svg>